
    <svg class="weather" width="30" height="20"><path d="M0,15L0.10638297872340426,15C0.2127659574468085,15,0.425531914893617,15,0.6382978723404256,15C0.851063829787234,15,1.0638297872340425,15,1.2765957446808511,15C1.4893617021276595,15,1.7021276595744679,15,1.9148936170212765,15C2.127659574468085,15,2.3404255319148937,15,2.5531914893617023,15C2.7659574468085104,15,2.978723404255319,15,3.1914893617021276,15C3.4042553191489358,15,3.6170212765957444,15,3.829787234042553,15C4.042553191489361,15,4.255319148936169,15,4.468085106382978,15C4.680851063829786,15,4.8936170212765955,15,5.106382978723404,15C5.319148936170213,15,5.531914893617021,15,5.74468085106383,15C5.957446808510638,15,6.170212765957446,15,6.382978723404255,15.416666666666666C6.595744680851063,15.833333333333332,6.8085106382978715,16.666666666666664,7.02127659574468,16.666666666666664C7.234042553191488,16.666666666666664,7.446808510638297,15.833333333333332,7.659574468085106,15.416666666666666C7.872340425531915,15,8.085106382978724,15,8.297872340425531,15C8.51063829787234,15,8.723404255319148,15,8.936170212765957,14.583333333333332C9.148936170212764,14.166666666666666,9.361702127659573,13.333333333333332,9.574468085106384,12.916666666666664C9.787234042553191,12.499999999999998,10,12.499999999999998,10.212765957446807,12.499999999999996C10.425531914893616,12.499999999999998,10.638297872340424,12.499999999999998,10.851063829787233,12.08333333333333C11.063829787234042,11.666666666666664,11.27659574468085,10.833333333333332,11.489361702127658,10.416666666666666C11.702127659574467,10,11.914893617021274,10,12.127659574468083,9.999999999999998C12.340425531914892,10,12.553191489361701,10,12.76595744680851,9.999999999999998C12.97872340425532,10,13.191489361702127,10,13.404255319148934,9.583333333333332C13.617021276595743,9.166666666666666,13.829787234042552,8.333333333333332,14.042553191489361,7.499999999999999C14.255319148936168,6.666666666666666,14.468085106382977,5.833333333333333,14.680851063829785,5C14.893617021276594,4.166666666666666,15.106382978723403,3.333333333333333,15.31914893617021,2.9166666666666665C15.53191489361702,2.5,15.74468085106383,2.5,15.957446808510637,2.4999999999999996C16.170212765957448,2.5,16.382978723404257,2.5,16.595744680851062,2.916666666666666C16.80851063829787,3.333333333333333,17.021276595744677,4.166666666666666,17.234042553191486,5C17.44680851063829,5.833333333333333,17.659574468085104,6.666666666666666,17.87234042553191,7.083333333333333C18.085106382978722,7.5,18.297872340425528,7.5,18.51063829787234,7.083333333333333C18.723404255319146,6.666666666666666,18.93617021276596,5.833333333333333,19.148936170212764,5C19.361702127659573,4.166666666666666,19.574468085106382,3.333333333333333,19.78723404255319,2.9166666666666665C20,2.5,20.21276595744681,2.5,20.425531914893618,2.083333333333333C20.638297872340424,1.6666666666666665,20.851063829787233,0.8333333333333333,21.06382978723404,0.41666666666666663C21.276595744680847,0,21.489361702127656,0,21.702127659574465,0C21.91489361702127,0,22.127659574468083,0,22.34042553191489,0C22.5531914893617,0,22.765957446808507,0,22.97872340425532,1.6666666666666665C23.191489361702125,3.333333333333333,23.404255319148938,6.666666666666666,23.617021276595743,8.75C23.829787234042552,10.833333333333332,24.04255319148936,11.666666666666664,24.255319148936167,12.499999999999998C24.468085106382976,13.333333333333332,24.680851063829785,14.166666666666666,24.893617021276594,14.583333333333332C25.106382978723403,15,25.319148936170212,15,25.531914893617017,15.833333333333332C25.744680851063826,16.666666666666664,25.957446808510635,18.333333333333332,26.170212765957444,19.166666666666664C26.38297872340425,20,26.595744680851062,20,26.808510638297868,19.999999999999996C27.02127659574468,20,27.234042553191486,20,27.4468085106383,19.999999999999996C27.659574468085104,20,27.87234042553191,20,28.08510638297872,19.583333333333332C28.297872340425528,19.166666666666664,28.510638297872337,18.333333333333332,28.723404255319146,18.333333333333332C28.936170212765955,18.333333333333332,29.148936170212764,19.166666666666664,29.255319148936167,19.583333333333332L29.361702127659573,20"></path></svg>

