
    <svg class="weather" width="30" height="20"><path d="M0,18L0.10416666666666666,18.333333333333332C0.20833333333333331,18.666666666666664,0.41666666666666663,19.333333333333332,0.625,19.666666666666664C0.8333333333333333,20,1.0416666666666665,20,1.25,19.999999999999996C1.4583333333333333,20,1.6666666666666665,20,1.875,19.999999999999996C2.083333333333333,20,2.2916666666666665,20,2.5,19.999999999999996C2.708333333333333,20,2.916666666666666,20,3.1249999999999996,19.666666666666664C3.333333333333333,19.333333333333332,3.5416666666666665,18.666666666666664,3.7499999999999996,18C3.958333333333333,17.333333333333332,4.166666666666666,16.666666666666664,4.374999999999999,16C4.583333333333332,15.333333333333332,4.791666666666666,14.666666666666664,5,14.333333333333332C5.208333333333333,13.999999999999998,5.416666666666666,13.999999999999998,5.625,13.999999999999996C5.833333333333333,13.999999999999998,6.041666666666666,13.999999999999998,6.249999999999999,13.999999999999996C6.458333333333332,13.999999999999998,6.666666666666666,13.999999999999998,6.875,13.666666666666664C7.083333333333333,13.333333333333332,7.291666666666666,12.666666666666666,7.5,12.333333333333332C7.708333333333333,12,7.916666666666666,12,8.125,12C8.333333333333332,12,8.541666666666664,12,8.749999999999998,12C8.958333333333332,12,9.166666666666666,12,9.375,12C9.583333333333332,12,9.791666666666666,12,10,12C10.208333333333332,12,10.416666666666664,12,10.624999999999998,11.666666666666666C10.833333333333332,11.333333333333332,11.041666666666666,10.666666666666666,11.249999999999998,10.333333333333332C11.458333333333332,10,11.666666666666666,10,11.875,9.999999999999998C12.083333333333332,10,12.291666666666664,10,12.499999999999998,9.999999999999998C12.708333333333332,10,12.916666666666666,10,13.124999999999998,9.666666666666664C13.333333333333332,9.333333333333332,13.541666666666666,8.666666666666664,13.75,8.333333333333332C13.958333333333332,7.999999999999998,14.166666666666664,7.999999999999998,14.374999999999998,7.999999999999998C14.583333333333332,7.999999999999998,14.791666666666666,7.999999999999998,14.999999999999998,7.666666666666665C15.208333333333332,7.333333333333331,15.416666666666664,6.666666666666664,15.624999999999996,6.333333333333332C15.83333333333333,5.999999999999998,16.041666666666664,5.999999999999998,16.25,5.666666666666665C16.458333333333332,5.333333333333332,16.666666666666664,4.666666666666666,16.875,3.666666666666666C17.083333333333332,2.6666666666666665,17.291666666666664,1.3333333333333333,17.499999999999996,0.6666666666666666C17.70833333333333,0,17.916666666666664,0,18.125,0C18.333333333333332,0,18.541666666666664,0,18.75,0C18.958333333333332,0,19.166666666666664,0,19.374999999999996,0C19.58333333333333,0,19.791666666666664,0,20,0.3333333333333333C20.208333333333332,0.6666666666666666,20.416666666666664,1.3333333333333333,20.625,1.6666666666666665C20.833333333333332,2,21.041666666666664,2,21.249999999999996,2.333333333333333C21.45833333333333,2.6666666666666665,21.666666666666664,3.333333333333333,21.875,3.9999999999999996C22.083333333333332,4.666666666666666,22.291666666666664,5.333333333333332,22.5,5.999999999999998C22.708333333333332,6.666666666666664,22.916666666666664,7.333333333333331,23.124999999999996,7.999999999999998C23.33333333333333,8.666666666666664,23.541666666666664,9.333333333333332,23.75,10C23.958333333333332,10.666666666666666,24.166666666666664,11.333333333333332,24.375,11.666666666666666C24.583333333333332,12,24.791666666666664,12,24.999999999999996,12.333333333333332C25.20833333333333,12.666666666666666,25.416666666666664,13.333333333333332,25.625,13.666666666666664C25.833333333333332,13.999999999999998,26.041666666666664,13.999999999999998,26.25,14.33333333333333C26.458333333333332,14.666666666666664,26.666666666666664,15.333333333333332,26.874999999999996,15.666666666666666C27.08333333333333,16,27.291666666666664,16,27.5,15.999999999999998C27.708333333333332,16,27.916666666666664,16,28.125,15.666666666666664C28.333333333333332,15.333333333333332,28.541666666666664,14.666666666666664,28.749999999999996,13.999999999999998C28.95833333333333,13.333333333333332,29.166666666666664,12.666666666666666,29.270833333333332,12.333333333333332L29.375,12"></path></svg>

