
    <svg class="weather" width="30" height="20"><path d="M0,13.333333333333334L0.10416666666666666,13.703703703703702C0.20833333333333331,14.074074074074074,0.41666666666666663,14.814814814814815,0.625,15.185185185185183C0.8333333333333333,15.555555555555555,1.0416666666666665,15.555555555555555,1.25,15.185185185185183C1.4583333333333333,14.814814814814815,1.6666666666666665,14.074074074074074,1.875,13.703703703703702C2.083333333333333,13.333333333333334,2.2916666666666665,13.333333333333334,2.5,13.703703703703702C2.708333333333333,14.074074074074074,2.916666666666666,14.814814814814815,3.1249999999999996,15.185185185185183C3.333333333333333,15.555555555555555,3.5416666666666665,15.555555555555555,3.7499999999999996,15.555555555555554C3.958333333333333,15.555555555555555,4.166666666666666,15.555555555555555,4.374999999999999,16.296296296296294C4.583333333333332,17.037037037037038,4.791666666666666,18.51851851851852,5,19.259259259259256C5.208333333333333,20,5.416666666666666,20,5.625,19.999999999999996C5.833333333333333,20,6.041666666666666,20,6.249999999999999,19.999999999999996C6.458333333333332,20,6.666666666666666,20,6.875,19.629629629629626C7.083333333333333,19.25925925925926,7.291666666666666,18.51851851851852,7.5,17.777777777777775C7.708333333333333,17.037037037037038,7.916666666666666,16.296296296296298,8.125,15.555555555555554C8.333333333333332,14.814814814814815,8.541666666666664,14.074074074074074,8.749999999999998,13.333333333333332C8.958333333333332,12.592592592592592,9.166666666666666,11.851851851851851,9.375,11.481481481481481C9.583333333333332,11.11111111111111,9.791666666666666,11.11111111111111,10,11.111111111111109C10.208333333333332,11.11111111111111,10.416666666666664,11.11111111111111,10.624999999999998,10.740740740740739C10.833333333333332,10.37037037037037,11.041666666666666,9.62962962962963,11.249999999999998,9.259259259259258C11.458333333333332,8.88888888888889,11.666666666666666,8.88888888888889,11.875,8.888888888888888C12.083333333333332,8.88888888888889,12.291666666666664,8.88888888888889,12.499999999999998,8.888888888888888C12.708333333333332,8.88888888888889,12.916666666666666,8.88888888888889,13.124999999999998,8.518518518518517C13.333333333333332,8.148148148148149,13.541666666666666,7.407407407407407,13.75,7.037037037037036C13.958333333333332,6.666666666666667,14.166666666666664,6.666666666666667,14.374999999999998,6.666666666666666C14.583333333333332,6.666666666666667,14.791666666666666,6.666666666666667,14.999999999999998,6.296296296296297C15.208333333333332,5.9259259259259265,15.416666666666664,5.185185185185187,15.624999999999996,4.814814814814817C15.83333333333333,4.444444444444446,16.041666666666664,4.444444444444446,16.25,4.074074074074075C16.458333333333332,3.7037037037037046,16.666666666666664,2.962962962962963,16.875,2.592592592592592C17.083333333333332,2.2222222222222214,17.291666666666664,2.2222222222222214,17.499999999999996,2.2222222222222214C17.70833333333333,2.2222222222222214,17.916666666666664,2.2222222222222214,18.125,2.2222222222222214C18.333333333333332,2.2222222222222214,18.541666666666664,2.2222222222222214,18.75,2.2222222222222214C18.958333333333332,2.2222222222222214,19.166666666666664,2.2222222222222214,19.374999999999996,1.8518518518518512C19.58333333333333,1.481481481481481,19.791666666666664,0.7407407407407405,20,0.37037037037037024C20.208333333333332,0,20.416666666666664,0,20.625,0.740740740740741C20.833333333333332,1.481481481481482,21.041666666666664,2.962962962962964,21.249999999999996,3.703703703703705C21.45833333333333,4.444444444444446,21.666666666666664,4.444444444444446,21.875,4.444444444444446C22.083333333333332,4.444444444444446,22.291666666666664,4.444444444444446,22.5,4.444444444444446C22.708333333333332,4.444444444444446,22.916666666666664,4.444444444444446,23.124999999999996,4.444444444444446C23.33333333333333,4.444444444444446,23.541666666666664,4.444444444444446,23.75,4.444444444444446C23.958333333333332,4.444444444444446,24.166666666666664,4.444444444444446,24.375,4.444444444444446C24.583333333333332,4.444444444444446,24.791666666666664,4.444444444444446,24.999999999999996,5.555555555555557C25.20833333333333,6.666666666666668,25.416666666666664,8.88888888888889,25.625,10.37037037037037C25.833333333333332,11.851851851851851,26.041666666666664,12.592592592592592,26.25,12.962962962962962C26.458333333333332,13.333333333333334,26.666666666666664,13.333333333333334,26.874999999999996,14.074074074074073C27.08333333333333,14.814814814814815,27.291666666666664,16.296296296296298,27.5,17.037037037037035C27.708333333333332,17.77777777777778,27.916666666666664,17.77777777777778,28.125,18.148148148148145C28.333333333333332,18.51851851851852,28.541666666666664,19.25925925925926,28.749999999999996,19.629629629629626C28.95833333333333,20,29.166666666666664,20,29.270833333333332,19.999999999999996L29.375,20"></path></svg>

